<?xml version="1.0" encoding="UTF-8" standalone="no"?>
<!-- Created with Inkscape (http://www.inkscape.org/) -->

<svg
   xmlns:dc="http://purl.org/dc/elements/1.1/"
   xmlns:cc="http://creativecommons.org/ns#"
   xmlns:rdf="http://www.w3.org/1999/02/22-rdf-syntax-ns#"
   xmlns:svg="http://www.w3.org/2000/svg"
   xmlns="http://www.w3.org/2000/svg"
   xmlns:sodipodi="http://sodipodi.sourceforge.net/DTD/sodipodi-0.dtd"
   xmlns:inkscape="http://www.inkscape.org/namespaces/inkscape"
   width="500"
   height="500"
   viewBox="0 0 132.29166 132.29167"
   version="1.1"
   id="svg842"
   inkscape:version="0.92.4 (unknown)"
   sodipodi:docname="icon peek.svg">
  <defs
     id="defs836" />
  <sodipodi:namedview
     id="base"
     pagecolor="#ffffff"
     bordercolor="#666666"
     borderopacity="1.0"
     inkscape:pageopacity="0.0"
     inkscape:pageshadow="2"
     inkscape:zoom="0.70710678"
     inkscape:cx="-13.613683"
     inkscape:cy="89.861094"
     inkscape:document-units="mm"
     inkscape:current-layer="layer1"
     showgrid="false"
     units="px"
     fit-margin-top="10"
     fit-margin-left="10"
     fit-margin-right="10"
     fit-margin-bottom="10"
     inkscape:window-width="1920"
     inkscape:window-height="1017"
     inkscape:window-x="0"
     inkscape:window-y="30"
     inkscape:window-maximized="1" />
  <metadata
     id="metadata839">
    <rdf:RDF>
      <cc:Work
         rdf:about="">
        <dc:format>image/svg+xml</dc:format>
        <dc:type
           rdf:resource="http://purl.org/dc/dcmitype/StillImage" />
        <dc:title></dc:title>
      </cc:Work>
    </rdf:RDF>
  </metadata>
  <g
     inkscape:label="Capa 1"
     inkscape:groupmode="layer"
     id="layer1"
     transform="translate(-10.187142,69.135029)">
    <path
       inkscape:connector-curvature="0"
       id="path2699"
       d="m 109.18046,33.580601 c 0,-0.09401 2.18163,-2.510206 4.84807,-5.369542 2.66644,-2.859336 4.94575,-5.381311 5.06514,-5.604371 0.2882,-0.538517 0.26347,-1.667904 -0.0487,-2.223415 C 118.80343,19.953416 114.5122,15.275029 108.16635,8.5232012 106.50682,6.757504 103.38259,3.4083162 101.22361,1.0805622 99.064591,-1.247192 96.459667,-4.0369602 95.434856,-5.1189223 93.009085,-7.6799715 83.230689,-18.190134 82.20159,-19.342517 c -1.313613,-1.470986 -2.393441,-1.824997 -3.423362,-1.12232 -0.290561,0.198251 -2.740875,2.732775 -5.445143,5.632301 -2.704269,2.899528 -5.050812,5.3024487 -5.214551,5.3398303 -0.163723,0.037407 -1.295188,-0.8852153 -2.514345,-2.0502153 -1.219132,-1.164998 -2.681792,-2.486565 -3.250329,-2.936818 -0.568533,-0.450254 -1.033699,-0.889756 -1.033699,-0.976677 0,-0.169266 14.288782,-15.554866 18.377208,-19.787857 2.145288,-2.221145 2.671661,-2.649873 4.134799,-3.367802 3.352973,-1.645224 6.980144,-1.470166 10.340371,0.499059 0.774132,0.453676 5.460361,5.264347 12.113561,12.435242 0.7391,0.796609 5.2512,5.628594 10.02689,10.737755 16.77597,17.9473658 18.08958,19.3833213 18.79214,20.5427174 1.13395,1.8713062 1.61789,3.5621381 1.72516,6.0274876 0.11292,2.595132 -0.22649,4.298613 -1.26638,6.355863 -0.82302,1.6282 -1.38776,2.29308 -7.30174,8.59664 -2.43499,2.595401 -4.39197,4.828192 -4.34884,4.961759 0.0432,0.133567 1.3966,0.621831 3.00769,1.08497 1.6111,0.463162 2.99222,0.905082 3.06918,0.982023 0.0769,0.07692 -4.57376,0.139916 -10.33491,0.139916 -5.76116,0 -10.47483,-0.07692 -10.47483,-0.170683 z M 118.63882,3.44465 c 1.09686,-1.2275712 0.57706,-2.1886678 -3.58,-6.6192457 -1.90858,-2.0341487 -5.29119,-5.6466829 -7.51692,-8.0278643 -8.816479,-9.432213 -8.252971,-8.871534 -9.274178,-9.227534 -0.846012,-0.29492 -1.628192,0.061 -2.042235,0.929231 -0.317758,0.66635 -0.317702,0.778622 6.47e-4,1.606933 0.361251,0.939328 0.376972,0.957 10.453966,11.7562235 7.857,8.4201263 9.11059,9.6984143 9.83943,10.0333323 0.79311,0.3644645 1.53065,0.2075546 2.11908,-0.4510758 z"
       style="fill:#41434f;stroke-width:0.20673999" />
    <path
       style="fill:#ec154e;fill-opacity:1;stroke:none;stroke-width:0.14646392;stroke-miterlimit:4;stroke-dasharray:none;stroke-opacity:1"
       d="M 42.808976,31.568134 C 42.521482,27.589276 41.099137,23.830108 38.77319,20.901791 37.310648,19.060495 36.227844,18.078471 34.127452,16.688495 l -1.684508,-1.11476 0.649999,-0.790292 c 1.466544,-1.783083 8.615932,-9.112008 8.888772,-9.112008 0.547933,0 4.556979,3.6779536 6.100579,5.596753 4.754655,5.910378 7.016099,11.903242 7.613461,20.175731 l 0.165921,2.297793 h -6.447821 -6.447827 z"
       id="path2723"
       inkscape:connector-curvature="0" />
    <path
       style="fill:#ec154e;fill-opacity:1;stroke:none;stroke-width:0.14646392;stroke-miterlimit:4;stroke-dasharray:none;stroke-opacity:1"
       d="m 64.689585,33.558136 -1.428355,-0.08962 v -1.327539 c 0,-5.88894 -1.700404,-12.747621 -4.587689,-18.504703 C 56.452772,9.2081989 54.57397,6.6458118 50.782744,2.8744594 l -3.436018,-3.41799843 3.051159,-3.25842827 c 1.678137,-1.7921446 3.728863,-3.9924142 4.557171,-4.8894964 l 1.506004,-1.6310583 3.220067,3.2150927 c 1.771032,1.7683009 4.014956,4.2776325 4.986484,5.5762956 6.95268,9.2937321 10.730245,19.9248147 11.187508,31.4846157 l 0.149854,3.788251 -4.943512,-0.04689 c -2.71893,-0.02588 -5.58627,-0.08742 -6.371869,-0.136497 z"
       id="path2725"
       inkscape:connector-curvature="0" />
    <path
       style="fill:#ec154e;fill-opacity:1;stroke:none;stroke-width:0.14646392;stroke-miterlimit:4;stroke-dasharray:none;stroke-opacity:1"
       d="m 17.988561,33.556744 -2.173585,-0.08277 v -0.847552 c 0,-3.751647 2.254622,-7.571202 5.511568,-9.337119 1.502187,-0.814466 1.677758,-0.850214 4.176412,-0.850214 2.345838,0 2.748999,0.0691 4.006518,0.686662 1.891333,0.928791 3.734482,2.804175 4.716532,4.799013 0.664842,1.350492 0.827493,2.011466 0.91765,3.729182 l 0.109588,2.087772 -7.545545,-0.05103 c -4.150048,-0.02808 -8.523656,-0.0884 -9.719128,-0.133811 z"
       id="path2727"
       inkscape:connector-curvature="0" />
  </g>
</svg>
