<?xml version="1.0" encoding="UTF-8" standalone="no"?>
<!-- Created with Inkscape (http://www.inkscape.org/) -->

<svg
   xmlns:dc="http://purl.org/dc/elements/1.1/"
   xmlns:cc="http://creativecommons.org/ns#"
   xmlns:rdf="http://www.w3.org/1999/02/22-rdf-syntax-ns#"
   xmlns:svg="http://www.w3.org/2000/svg"
   xmlns="http://www.w3.org/2000/svg"
   xmlns:sodipodi="http://sodipodi.sourceforge.net/DTD/sodipodi-0.dtd"
   xmlns:inkscape="http://www.inkscape.org/namespaces/inkscape"
   version="1.1"
   id="svg2126"
   width="581.67981"
   height="179.29579"
   viewBox="0 0 581.6798 179.29579"
   sodipodi:docname="logo peek.svg"
   inkscape:version="0.92.4 (unknown)">
  <metadata
     id="metadata2132">
    <rdf:RDF>
      <cc:Work
         rdf:about="">
        <dc:format>image/svg+xml</dc:format>
        <dc:type
           rdf:resource="http://purl.org/dc/dcmitype/StillImage" />
        <dc:title></dc:title>
      </cc:Work>
    </rdf:RDF>
  </metadata>
  <defs
     id="defs2130" />
  <sodipodi:namedview
     pagecolor="#ffffff"
     bordercolor="#666666"
     borderopacity="1"
     objecttolerance="10"
     gridtolerance="10"
     guidetolerance="10"
     inkscape:pageopacity="0"
     inkscape:pageshadow="2"
     inkscape:window-width="1920"
     inkscape:window-height="1017"
     id="namedview2128"
     showgrid="false"
     showguides="true"
     inkscape:guide-bbox="true"
     fit-margin-top="10"
     fit-margin-left="10"
     fit-margin-right="10"
     fit-margin-bottom="10"
     inkscape:zoom="1.5337299"
     inkscape:cx="292.16672"
     inkscape:cy="97.367649"
     inkscape:window-x="0"
     inkscape:window-y="30"
     inkscape:window-maximized="1"
     inkscape:current-layer="svg2126" />
  <g
     id="g823">
    <path
       style="fill:#41434f;stroke-width:0.31999999"
       d="m 154.51465,146.25201 c 0,-0.14537 3.37681,-3.88541 7.50403,-8.31119 4.12721,-4.42579 7.65521,-8.32938 7.84,-8.67465 0.44609,-0.83354 0.40781,-2.58165 -0.0754,-3.4415 -0.37388,-0.66535 -7.01601,-7.90672 -16.83835,-18.35745 -2.56867,-2.73301 -7.40448,-7.917015 -10.74623,-11.520005 -3.34176,-3.603 -7.37376,-7.9211 -8.96,-9.5958 -3.75473,-3.964089 -18.8901,-20.23212 -20.48298,-22.01582 -2.03326,-2.27685 -3.70466,-2.8248 -5.29881,-1.73717 -0.44974,0.30684 -4.24243,4.22989 -8.428198,8.717891 -4.18577,4.488 -7.81784,8.20733 -8.07128,8.26519 -0.25343,0.0579 -2.00474,-1.37017 -3.8918,-3.1734 -1.88702,-1.80323 -4.15098,-3.8488 -5.03098,-4.54572 -0.88,-0.69692 -1.6,-1.3772 -1.6,-1.51174 0,-0.262 22.116718,-24.076411 28.444938,-30.628395 3.32056,-3.437971 4.1353,-4.101574 6.4,-5.212809 5.18986,-2.546541 10.80413,-2.275578 16.00522,0.772464 1.19823,0.702214 8.45176,8.148352 18.74984,19.247739 1.144,1.23302 8.128,8.71215 15.52,16.620301 25.96649,27.779599 27.99973,30.002254 29.08717,31.796804 1.75518,2.89648 2.50424,5.51361 2.67029,9.32957 0.17478,4.01683 -0.35058,6.65357 -1.96017,9.83786 -1.2739,2.52018 -2.14801,3.5493 -11.30191,13.30621 -3.76897,4.01724 -6.79805,7.47324 -6.73129,7.68 0.0668,0.20676 2.1617,0.96247 4.65541,1.67936 2.49372,0.71689 4.63148,1.40089 4.7506,1.52 0.11911,0.11911 -7.07943,0.21657 -15.99677,0.21657 -8.91733,0 -16.21333,-0.11894 -16.21333,-0.26431 z m 14.64,-46.645585 c 1.69776,-1.90007 0.89319,-3.38769 -5.54127,-10.24551 -2.95416,-3.14853 -8.18989,-8.740149 -11.63496,-12.425829 -13.64649,-14.599541 -12.77427,-13.731701 -14.35493,-14.282731 -1.30949,-0.45649 -2.52018,0.0944 -3.16105,1.4383 -0.49184,1.0314 -0.49175,1.20518 0.001,2.48727 0.55916,1.45393 0.58349,1.48128 16.18105,18.19673 12.16137,13.03298 14.10172,15.01157 15.22984,15.529985 1.22761,0.56413 2.3692,0.32112 3.28,-0.698215 z"
       id="path2699"
       inkscape:connector-curvature="0" />
    <text
       xml:space="preserve"
       style="font-style:normal;font-variant:normal;font-weight:normal;font-stretch:normal;font-size:156.84509277px;line-height:1.25;font-family:Comfortaa;-inkscape-font-specification:Comfortaa;letter-spacing:0px;word-spacing:0px;fill:#41434f;fill-opacity:1;stroke:none;stroke-width:3.92112708"
       x="212.62244"
       y="132.53523"
       id="text2717"><tspan
         sodipodi:role="line"
         id="tspan2715"
         x="212.62244"
         y="132.53523"
         style="font-style:normal;font-variant:normal;font-weight:normal;font-stretch:normal;font-family:Comfortaa;-inkscape-font-specification:Comfortaa;letter-spacing:-4.89170122px;stroke-width:3.92112708">peek</tspan></text>
    <path
       inkscape:connector-curvature="0"
       id="path2723"
       d="m 51.782336,143.13703 c -0.444993,-6.15861 -2.646554,-11.9772 -6.246744,-16.50976 -2.263778,-2.85005 -3.939782,-4.37005 -7.19085,-6.52152 l -2.607343,-1.72547 1.006092,-1.22324 c 2.269971,-2.7599 13.336065,-14.10392 13.758378,-14.10392 0.848112,0 7.053466,5.69289 9.442708,8.66289 7.359435,9.1483 10.859785,18.42428 11.784405,31.22877 l 0.25683,3.55661 h -9.980193 -9.98019 z"
       style="fill:#ec154e;fill-opacity:1;stroke:none;stroke-width:0.22670241;stroke-miterlimit:4;stroke-dasharray:none;stroke-opacity:1" />
    <path
       inkscape:connector-curvature="0"
       id="path2725"
       d="m 85.649972,146.21725 -2.21086,-0.13874 v -2.05481 c 0,-9.11514 -2.63195,-19.73126 -7.101,-28.6423 -3.43739,-6.85394 -6.34547,-10.82011 -12.213675,-16.657545 l -5.318398,-5.2905 4.722701,-5.04353 c 2.597482,-2.77395 5.771672,-6.179614 7.053762,-7.568151 l 2.33105,-2.524614 4.98414,4.976445 c 2.74127,2.73704 6.2145,6.62108 7.71827,8.6312 10.76162,14.385205 16.608678,30.840395 17.316448,48.733095 l 0.23194,5.86359 -7.651758,-0.0727 c -4.20846,-0.04 -8.64664,-0.13514 -9.86262,-0.21144 z"
       style="fill:#ec154e;fill-opacity:1;stroke:none;stroke-width:0.22670241;stroke-miterlimit:4;stroke-dasharray:none;stroke-opacity:1" />
    <path
       inkscape:connector-curvature="0"
       id="path2727"
       d="M 13.364357,146.2151 10,146.08695 v -1.31185 c 0,-5.80696 3.489788,-11.719 8.531014,-14.45235 2.325143,-1.26069 2.596897,-1.31602 6.464407,-1.31602 3.630977,0 4.255005,0.10695 6.201442,1.06283 2.927475,1.43765 5.780372,4.34045 7.300428,7.42813 1.029064,2.09032 1.280823,3.11343 1.420371,5.77217 l 0.169612,3.23153 -11.67928,-0.0791 c -6.423603,-0.0435 -13.19324,-0.13673 -15.043637,-0.20722 z"
       style="fill:#ec154e;fill-opacity:1;stroke:none;stroke-width:0.22670241;stroke-miterlimit:4;stroke-dasharray:none;stroke-opacity:1" />
  </g>
</svg>
